<svg width="1080" height="1080" viewBox="0 0 1080 1080" fill="none" xmlns="http://www.w3.org/2000/svg">
<path d="M238.876 468.622C233.574 465.48 227.094 463.909 219.633 463.909C212.956 463.909 207.065 465.087 201.862 467.444C196.658 469.8 192.338 473.236 189 477.654C187.527 479.52 186.349 481.68 185.269 483.84V425.127H161.607V580.254H185.269V516.731C185.269 509.564 186.349 503.476 188.607 498.371C190.865 493.265 194.007 489.436 197.934 486.884C201.96 484.331 206.574 482.956 211.68 482.956C218.258 482.956 223.167 484.822 226.505 488.454C229.844 492.087 231.513 497.389 231.513 504.36V580.156H255.174V502.102C255.174 494.345 253.8 487.669 250.953 481.974C248.105 476.28 244.08 471.764 238.778 468.622H238.876Z" fill="#8D23E9"/>
<path d="M363.175 554.04V505.342C363.175 496.702 361.407 489.24 357.873 482.956C354.338 476.673 349.233 471.96 342.458 468.72C335.684 465.48 327.633 463.811 318.109 463.811C308.585 463.811 300.633 465.48 293.465 468.72C286.396 471.96 280.8 476.575 276.775 482.367C272.749 488.16 270.589 494.738 270.393 502.102H295.036C295.429 495.916 297.687 491.007 301.811 487.473C306.033 483.938 311.433 482.171 318.207 482.171C322.822 482.171 326.749 482.956 329.891 484.527C333.033 486.098 335.389 488.16 336.96 490.713C338.531 493.265 339.316 495.916 339.316 498.764C339.316 501.316 338.727 503.476 337.549 505.047C336.371 506.618 334.505 507.895 332.051 508.876C329.596 509.858 326.062 510.644 321.644 511.331L303.185 514.276C291.796 516.044 282.96 519.873 276.775 525.567C270.491 531.262 267.447 539.313 267.447 549.72C267.447 556.593 269.018 562.582 272.258 567.589C275.498 572.695 279.916 576.622 285.513 579.371C291.109 582.12 297.491 583.495 304.462 583.495C311.04 583.495 317.029 582.316 322.429 580.058C327.829 577.8 332.444 574.658 336.076 570.633C337.745 568.865 339.12 567.098 340.396 565.135C340.495 566.607 340.691 568.08 340.887 569.553C341.476 573.676 342.065 577.211 342.851 580.353H367.691V577.113C366.218 575.935 365.138 573.087 364.353 568.669C363.567 564.251 363.175 559.44 363.175 554.236V554.04ZM336.175 549.916C333.818 554.433 330.578 558.065 326.16 560.618C321.84 563.171 316.735 564.545 310.942 564.545C305.149 564.545 300.829 563.073 297.196 560.127C293.564 557.182 291.698 553.255 291.698 548.345C291.698 543.436 293.269 539.411 296.509 536.564C299.749 533.716 304.756 531.655 311.531 530.28L322.429 528.12C327.436 527.04 331.56 525.862 334.505 524.585C336.371 523.8 338.04 522.72 339.611 521.444V534.6C339.611 540.196 338.433 545.302 336.175 549.818V549.916Z" fill="#8D23E9"/>
<path d="M412.658 433.571H393.513L392.825 444.665C392.531 450.065 391.647 454.385 390.076 457.625C388.505 460.865 386.247 463.222 383.302 464.694C380.356 466.167 376.331 466.953 371.422 466.953H369.262V485.804H388.996V550.996C388.996 558.458 390.371 564.447 393.022 569.16C395.673 573.774 399.404 577.211 404.214 579.174C409.025 581.236 414.72 582.218 421.494 582.218C424.047 582.218 426.502 582.12 428.76 581.825C431.018 581.531 433.276 581.138 435.534 580.451V561.698C432.884 562.287 430.036 562.582 427.091 562.582C422.476 562.582 418.942 561.502 416.389 559.44C413.934 557.28 412.658 553.745 412.658 548.738V485.705H437.4V466.854H412.658V433.473V433.571Z" fill="#8D23E9"/>
<path d="M521.345 470.585C513.785 466.069 505.047 463.811 495.131 463.811C485.214 463.811 475.887 466.265 467.836 471.076C459.785 475.887 453.502 482.858 448.887 491.891C444.273 500.924 442.014 511.429 442.014 523.604C442.014 536.76 444.273 547.855 448.789 556.789C453.305 565.724 459.491 572.4 467.443 576.818C475.396 581.236 484.527 583.396 495.033 583.396C504.458 583.396 512.803 581.727 519.873 578.291C526.942 574.855 532.734 570.142 536.956 564.055C541.178 557.967 543.731 550.8 544.614 542.651H520.756C519.774 549.622 517.025 554.924 512.705 558.753C508.385 562.582 502.887 564.447 496.211 564.447C490.025 564.447 484.625 562.975 480.109 560.029C475.593 557.084 472.156 552.665 469.702 546.873C467.738 542.062 466.56 536.269 466.167 529.593H545.302V521.836C545.302 509.564 543.24 499.156 539.018 490.516C534.796 481.876 529.003 475.298 521.443 470.782L521.345 470.585ZM469.604 500.04C472.058 494.345 475.396 489.927 479.814 486.982C484.134 484.036 489.142 482.564 494.738 482.564C500.334 482.564 504.949 483.84 508.778 486.295C512.607 488.749 515.553 492.578 517.516 497.585C519.087 501.513 520.069 506.127 520.363 511.527H466.56C467.149 507.305 468.131 503.378 469.604 500.04Z" fill="#8D23E9"/>
<path d="M617.76 522.033C613.931 524.782 608.727 526.156 602.247 526.156C594.687 526.156 588.502 524.389 583.887 520.756C579.175 517.124 576.72 512.018 576.524 505.244H551.684C551.88 513.393 554.04 520.364 558.164 526.254C562.189 532.145 567.982 536.662 575.542 539.804C583.004 542.945 591.84 544.516 601.953 544.516C610.789 544.516 618.644 543.142 625.615 540.294C632.585 537.447 638.084 533.225 642.207 527.629C646.233 522.033 648.295 515.258 648.295 507.305C648.295 501.611 647.018 496.604 644.564 492.382C642.109 488.16 638.378 484.625 633.567 481.876C628.658 479.127 622.669 476.967 615.305 475.593L594.295 471.567C588.993 470.585 585.065 469.014 582.709 466.953C580.255 464.891 579.076 462.044 579.076 458.607C579.076 455.564 579.96 452.913 581.629 450.556C583.396 448.2 585.753 446.433 588.895 445.156C592.036 443.88 595.669 443.291 599.793 443.291C606.469 443.291 611.771 445.058 615.698 448.494C619.724 451.931 621.785 456.742 621.982 462.927H646.331C646.036 455.76 644.073 449.28 640.44 443.487C636.807 437.793 631.604 433.276 624.829 430.036C618.055 426.796 609.807 425.127 600.087 425.127C590.367 425.127 582.611 426.698 575.64 429.84C568.669 432.982 563.465 437.302 559.734 442.898C556.102 448.494 554.236 454.68 554.236 461.651C554.236 469.898 556.887 476.574 562.091 481.68C567.393 486.785 575.542 490.516 586.735 492.676L605.88 496.604C612.065 497.88 616.582 499.549 619.331 501.709C622.08 503.869 623.455 506.913 623.455 510.84C623.455 515.553 621.491 519.382 617.662 522.131L617.76 522.033ZM607.647 489.829C606.076 491.498 604.211 492.284 602.051 492.284C599.891 492.284 597.927 491.498 596.258 489.829C594.589 488.16 593.705 486.294 593.705 484.134C593.705 481.974 594.491 480.109 596.16 478.44C597.829 476.771 599.695 475.985 601.953 475.985C604.015 475.985 605.88 476.771 607.549 478.44C609.218 480.109 610.004 481.974 610.004 484.134C610.004 486.294 609.218 488.16 607.647 489.829Z" fill="#8D23E9"/>
<path d="M684.524 425.127H660.862V580.254H684.524V425.127Z" fill="#8D23E9"/>
<path d="M777.6 471.076C769.745 466.167 760.516 463.811 750.207 463.811C739.898 463.811 730.571 466.265 722.618 471.076C714.665 475.985 708.578 482.858 704.258 491.891C699.938 500.924 697.778 511.429 697.778 523.505C697.778 535.582 699.938 545.989 704.258 555.022C708.578 564.055 714.665 571.025 722.618 575.935C730.571 580.844 739.702 583.298 750.207 583.298C760.713 583.298 769.745 580.844 777.6 575.935C785.454 571.025 791.64 564.055 795.96 555.022C800.28 545.989 802.44 535.484 802.44 523.505C802.44 511.527 800.28 500.924 795.96 491.891C791.64 482.858 785.553 475.887 777.6 471.076ZM717.709 527.924C716.924 529.298 715.942 530.28 714.567 530.967C713.193 531.655 711.818 532.047 710.247 532.047C708.676 532.047 707.204 531.655 705.927 530.967C704.651 530.28 703.571 529.2 702.883 527.924C702.098 526.549 701.705 525.175 701.705 523.604C701.705 522.033 702.098 520.56 702.883 519.185C703.669 517.811 704.651 516.829 705.927 516.044C707.204 515.258 708.676 514.865 710.247 514.865C711.818 514.865 713.193 515.258 714.469 516.044C715.745 516.829 716.825 517.909 717.611 519.185C718.396 520.462 718.789 521.935 718.789 523.505C718.789 525.076 718.396 526.451 717.611 527.825L717.709 527.924ZM774.458 545.498C772.298 551.585 769.058 556.2 765.033 559.342C760.909 562.484 756 564.055 750.207 564.055C744.414 564.055 739.407 562.484 735.284 559.342C731.16 556.2 728.018 551.585 725.858 545.498C723.698 539.411 722.52 532.047 722.52 523.505C722.52 514.964 723.6 507.502 725.858 501.415C728.018 495.327 731.258 490.811 735.284 487.669C739.407 484.527 744.414 483.055 750.207 483.055C758.945 483.055 765.72 486.589 770.531 493.56C775.342 500.531 777.796 510.545 777.796 523.505C777.796 532.047 776.716 539.411 774.458 545.498ZM797.433 519.284C798.218 520.658 798.611 522.033 798.611 523.702C798.611 525.371 798.218 526.647 797.433 528.022C796.647 529.396 795.665 530.378 794.291 531.065C792.916 531.753 791.542 532.145 789.971 532.145C788.4 532.145 786.927 531.753 785.651 531.065C784.374 530.378 783.294 529.298 782.607 528.022C781.822 526.647 781.429 525.273 781.429 523.702C781.429 522.131 781.822 520.658 782.607 519.284C783.393 517.909 784.374 516.927 785.651 516.142C786.927 515.356 788.4 514.964 789.971 514.964C791.542 514.964 792.916 515.356 794.291 516.142C795.665 516.927 796.647 517.909 797.433 519.284Z" fill="#8D23E9"/>
<path d="M913.091 494.444C909.556 485.411 904.353 478.538 897.676 473.629C891 468.818 883.047 466.364 873.818 466.364C867.927 466.364 862.724 467.542 858.109 469.8C853.593 472.156 849.764 475.396 846.622 479.618C845.444 481.385 844.167 483.447 843.087 485.902C842.694 486.687 842.302 487.571 841.909 488.454C841.516 489.436 841.124 490.32 840.927 491.302C839.945 494.247 838.767 496.505 837.294 498.076C835.822 499.647 833.858 500.433 831.502 500.433C829.833 500.433 828.36 500.04 826.985 499.254C825.611 498.469 824.531 497.389 823.745 496.014C822.96 494.64 822.567 493.167 822.567 491.498C822.567 489.829 822.96 488.454 823.745 487.08C824.531 485.705 825.611 484.724 826.985 483.84C828.36 483.054 829.931 482.662 831.6 482.662H835.527C836.705 482.662 837.589 482.367 838.276 481.68C838.964 480.993 839.258 480.011 839.258 478.833V469.309H815.793V622.473H839.454V567C840.731 569.454 842.302 571.614 843.971 573.578C847.505 577.604 851.531 580.647 856.342 582.709C861.054 584.771 866.258 585.753 871.953 585.753C881.476 585.753 889.724 583.298 896.793 578.487C903.862 573.578 909.262 566.705 912.993 557.673C916.724 548.64 918.589 538.134 918.589 526.058C918.589 513.982 916.822 503.28 913.189 494.247L913.091 494.444ZM890.705 547.56C888.644 553.647 885.698 558.36 881.574 561.698C877.549 565.036 872.64 566.705 866.749 566.705C860.858 566.705 856.047 565.036 851.924 561.698C847.8 558.36 844.658 553.647 842.498 547.56C840.338 541.473 839.258 534.404 839.258 526.451C839.258 518.498 840.338 511.331 842.498 505.244C844.658 499.156 847.8 494.345 851.924 490.909C856.047 487.473 861.054 485.804 866.749 485.804C872.444 485.804 877.549 487.473 881.574 490.909C885.6 494.345 888.644 499.058 890.705 505.145C892.767 511.233 893.749 518.302 893.749 526.353C893.749 534.404 892.767 541.473 890.705 547.56Z" fill="#8D23E9"/>
<path d="M350.116 669.698C347.564 668.127 345.502 665.967 344.029 663.12C342.556 660.371 341.771 657.229 341.771 653.695C341.771 649.964 342.556 646.625 344.127 643.778C345.698 640.931 347.858 638.673 350.607 637.004C353.356 635.433 356.498 634.549 359.935 634.549C362.88 634.549 365.433 635.04 367.691 636.12C369.851 637.2 371.618 638.476 372.895 640.145C374.171 641.815 375.055 643.484 375.546 645.349H370.636C369.753 643.385 368.476 641.815 366.709 640.636C364.942 639.458 362.684 638.869 359.836 638.869C357.382 638.869 355.222 639.458 353.258 640.636C351.295 641.815 349.822 643.484 348.644 645.742C347.466 648 346.975 650.553 346.975 653.596C346.975 656.64 347.466 658.996 348.546 661.156C349.626 663.316 351.098 664.985 353.062 666.164C355.026 667.342 357.284 667.931 359.836 667.931C362.095 667.931 364.058 667.44 365.826 666.458C367.495 665.476 368.869 664.102 369.851 662.335C370.833 660.567 371.324 658.407 371.422 655.953H358.266V652.025H375.546V671.367H371.029V666.065C370.047 667.833 368.476 669.305 366.513 670.484C364.549 671.662 361.996 672.153 358.855 672.153C355.713 672.153 352.767 671.367 350.116 669.796V669.698Z" fill="#8D23E9"/>
<path d="M386.836 635.433H410.891V639.654H391.746V650.651H408.142V654.971H391.746V667.047H411.186V671.269H386.935V635.433H386.836Z" fill="#8D23E9"/>
<path d="M421.2 635.433H427.484L446.727 666.851L445.844 667.047C445.746 663.513 445.647 659.193 445.647 654.087V635.334H450.458V671.171H444.175L424.931 639.753L425.815 639.556C426.011 644.662 426.109 648.884 426.109 652.222V671.171H421.298V635.334L421.2 635.433Z" fill="#8D23E9"/>
<path d="M462.535 635.433H486.589V639.654H467.444V650.651H483.84V654.971H467.444V667.047H486.884V671.269H462.633V635.433H462.535Z" fill="#8D23E9"/>
<path d="M496.8 635.433H509.76C512.411 635.433 514.669 635.825 516.633 636.709C518.596 637.593 520.069 638.771 521.051 640.342C522.033 641.913 522.524 643.68 522.524 645.742C522.524 647.803 522.033 649.571 520.953 651.142C519.873 652.713 518.4 653.891 516.436 654.774C514.473 655.658 512.215 656.051 509.662 656.051H501.709V671.367H496.8V635.531V635.433ZM515.356 650.454C516.829 649.374 517.615 647.803 517.615 645.742C517.615 643.68 516.927 642.109 515.455 641.029C513.982 640.047 512.018 639.458 509.466 639.458H501.709V651.927H509.367C511.92 651.927 513.884 651.436 515.455 650.356L515.356 650.454ZM505.833 654.087H511.233L523.702 671.269H517.909L505.833 654.087Z" fill="#8D23E9"/>
<path d="M542.356 635.433H547.855L561.404 671.269H556.2L548.542 650.356C547.364 647.018 546.185 643.778 545.007 640.636C543.927 643.778 542.651 647.116 541.375 650.553L533.716 671.269H528.611L542.455 635.433H542.356ZM536.564 658.898H553.353L555.218 663.12H534.404L536.465 658.898H536.564Z" fill="#8D23E9"/>
<path d="M572.302 639.851H562.287V635.433H587.226V639.851H577.211V671.367H572.302V639.851Z" fill="#8D23E9"/>
<path d="M595.865 635.433H600.775V671.269H595.865V635.433Z" fill="#8D23E9"/>
<path d="M608.727 635.433H613.833L621.098 655.56C622.571 659.487 623.749 662.924 624.829 665.869C625.32 664.593 625.615 663.709 625.909 663.12C626.105 662.531 626.498 661.647 626.891 660.371C627.48 658.702 628.069 657.033 628.756 655.364L636.022 635.433H641.029L627.676 671.269H621.884L608.825 635.433H608.727Z" fill="#8D23E9"/>
<path d="M648.786 635.433H672.84V639.654H653.695V650.651H670.091V654.971H653.695V667.047H673.135V671.269H648.884V635.433H648.786Z" fill="#8D23E9"/>
<path d="M706.418 635.433H711.916L725.466 671.269H720.262L712.604 650.356C711.426 647.018 710.247 643.778 709.069 640.636C707.989 643.778 706.713 647.116 705.436 650.553L697.778 671.269H692.673L706.516 635.433H706.418ZM700.626 658.898H717.415L719.28 663.12H698.466L700.527 658.898H700.626Z" fill="#8D23E9"/>
<path d="M733.418 635.433H738.327V671.269H733.418V635.433Z" fill="#8D23E9"/>
</svg>
